<svg id="Layer_1" data-name="Layer 1" xmlns="http://www.w3.org/2000/svg" viewBox="0 0 1024.24 1024.2"><defs><style>.cls-1{fill:#ce2c27;}.cls-2{fill:#d6c498;}</style></defs><title>Logo</title><path class="cls-1" d="M1025,793q0,113.72.09,227.44c0,3.64-.65,4.66-4.53,4.66q-507.37-.17-1014.75,0c-3.92,0-4.93-.6-4.93-4.79Q1.08,650.66,1,281q176.71,0,353.43-.08c4.13,0,5.69.69,5.68,5.35Q359.88,418,360,549.72a7.67,7.67,0,0,1-3.17,6.74q-83,66.23-165.91,132.6c-25.24,20.19-50.53,40.3-75.67,60.61-7.48,6-10.87,14.07-9.2,23.8,1.83,10.67,8,17.06,18.73,19.38,4.51,1,8.93.45,13.38.45q439.16.06,878.32,0C1019.36,793.33,1022.18,793.12,1025,793Z" transform="translate(-0.88 -0.9)"/><path class="cls-1" d="M1,232Q1,118.78.91,5.56C.91,1.91,1.56.9,5.44.9q507.37.17,1014.75,0c3.92,0,4.93.6,4.93,4.79q-.2,370.16-.12,740.31c-2.49-.12-5-.33-7.47-.33q-172.75,0-345.5.08c-4.72,0-6.15-1.1-6.14-6q.23-131,.07-262c0-3,.54-5.24,3.11-7.29q75-59.79,150-119.75Q864.9,314,910.77,277.34c10.18-8.13,13.09-24.63,5.1-35.41-6-8.14-14.68-9.89-23.87-9.89Q446.5,232,1,232Z" transform="translate(-0.88 -0.9)"/><path class="cls-2" d="M1,232q445.5,0,891,0c9.19,0,17.84,1.75,23.87,9.89,8,10.78,5.08,27.28-5.1,35.41Q864.89,314,819,350.68q-75,59.91-150,119.75c-2.58,2.05-3.11,4.29-3.11,7.29q.08,131-.07,262c0,4.92,1.42,6,6.14,6q172.75-.19,345.5-.08c2.49,0,5,.22,7.47.33v47c-2.82.12-5.64.33-8.47.33q-439.16,0-878.32,0c-4.45,0-8.87.53-13.38-.45-10.7-2.32-16.89-8.71-18.73-19.38-1.67-9.73,1.72-17.76,9.2-23.8,25.14-20.31,50.43-40.42,75.67-60.61q82.93-66.33,165.91-132.6a7.67,7.67,0,0,0,3.17-6.74q-.1-131.72.06-263.45c0-4.67-1.55-5.36-5.68-5.35Q177.71,281.07,1,281ZM325.34,745.42c2.59.13,3.56.23,4.53.23q140.93,0,281.86.09c4.08,0,5.36-1,5.35-5.27Q616.9,629,617,517.58c0-1.37.63-3-1.12-4.47ZM409,514.68l290.7-232.56L699,281H694.1q-139.46,0-278.92-.12c-5,0-6.31,1.21-6.3,6.28q.27,110.47.12,220.93ZM199.79,744.5c2.3,1.63,4.19,1.12,6,1.12,11.66.05,23.33-.15,35,.11a16.35,16.35,0,0,0,11.31-4Q378,640.78,504.09,540,659.84,415.48,815.63,291c3.68-2.94,7.3-6,11.66-9.52a26.7,26.7,0,0,0-2.92-.46c-14.16,0-28.33,0-42.49-.07-2.42,0-4.08,1.1-5.79,2.46l-276.29,221L241.85,710.81C228,721.92,214.08,733.05,199.79,744.5Z" transform="translate(-0.88 -0.9)"/><path class="cls-1" d="M325.34,745.42,615.85,513.1c1.74,1.5,1.12,3.1,1.12,4.47q.05,111.44.12,222.89c0,4.23-1.27,5.27-5.35,5.27q-140.93-.16-281.86-.09C328.91,745.64,327.94,745.55,325.34,745.42Z" transform="translate(-0.88 -0.9)"/><path class="cls-1" d="M409,514.68V508.1q0-110.47-.12-220.93c0-5.07,1.27-6.29,6.3-6.28q139.46.24,278.92.12H699l.66,1.12Z" transform="translate(-0.88 -0.9)"/><path class="cls-1" d="M199.79,744.5c14.29-11.45,28.17-22.58,42.07-33.69L499.8,504.46l276.29-221c1.7-1.36,3.37-2.48,5.79-2.46,14.16.1,28.33.05,42.49.07a26.7,26.7,0,0,1,2.92.46c-4.35,3.56-8,6.57-11.66,9.52Q659.86,415.51,504.09,540,378,640.8,252,741.73a16.35,16.35,0,0,1-11.31,4c-11.66-.26-23.33-.06-35-.11C204,745.62,202.09,746.13,199.79,744.5Z" transform="translate(-0.88 -0.9)"/></svg>